<svg version="1.2" xmlns="http://www.w3.org/2000/svg" viewBox="0 0 1666 589" width="1666" height="589"><style>.a{fill:#d2d2d2}.b{fill:#b03a00}</style><path class="a" d="m149.9 319.6h28.6q0.2 13.6-2.9 25.2-3 11.4-9.4 19.8-6.5 8.4-16.1 13.3-9.5 4.6-22.2 4.6-9.8 0-17.7-3.2-7.8-3.4-14.6-8.4-6.6-5-12.4-10.9-5.5-5.9-11-10.9-5.4-5-10.8-8.2-5.3-3.4-11.4-3.4-10.5 0-15.7 8.4-5 8.4-5 26.4h-28.6q-0.4-13.6 2.7-25 3.2-11.6 9.4-20 6.5-8.6 15.9-13.2 9.7-4.9 22.4-4.9 9.8 0 17.7 3.4 7.8 3.3 14.4 8.3 6.8 5 12.4 10.9 5.7 5.9 11.1 10.9 5.5 5 10.9 8.4 5.3 3.2 11.4 3.2 11.3 0 16.1-8.2 4.8-8.3 4.8-26.5zm112.3-108.8l4.4-34h26l-4.7 34.9q9.3 0.8 18.6 2.3 9.5 1.4 17.5 3.4v27.5q-9.8-2.5-19.8-4.3-10-1.8-19.7-2.7l-10.2 76.5q12 4.7 23.8 10.2 11.8 5.4 21.1 12.9 9.5 7.3 15.2 17.5 5.9 10.2 5.9 24.3 0 15-6.1 26.6-6.1 11.6-17 19.7-10.9 8-26.2 12.7-15.4 4.4-33.8 5.3l-5.9 42.6h-26.1l5.9-42.6q-14.5-1-27.7-3-13.1-2.1-22.7-4.6v-29.7q11.2 3.9 24.5 6.4 13.4 2.5 29.6 3.4l10.6-80.4q-11.6-4.5-22.9-9.7-11.3-5.1-20.2-12.3-8.8-7.3-14.3-17.1-5.5-9.9-5.5-23.5 0-11 4.6-21.8 4.7-10.9 14.5-19.4 9.8-8.8 24.8-14.3 15-5.8 35.8-6.8zm-12.7 93.8l9.1-67q-22.3 1.9-32.7 10.5-10.2 8.4-10.2 21.6 0 12.4 8.4 20.4 8.6 7.9 25.4 14.5zm20.4 40.9l-9.2 70.6q24.2-1.8 35.1-10.7 11.1-8.9 11.1-24.3 0-6.4-2.4-11.5-2.3-5.1-6.9-9.2-4.7-4.2-11.7-7.7-6.7-3.6-16-7.2z"/><path class="b" d="m643.9 336.5q6.1 0 9.4 5.6 3.7 5.6 3.7 15.5 0 18.7-8.9 29-20.1 24.9-44 40.8-23.9 15.9-54.8 15.9-95.6 0-95.6-134.5 0-20.6 1.4-41.7h-18.3q-14.1 0-19.2-5.1-4.7-5.2-4.7-16.4 0-26.3 21.1-26.3h26.7q7.9-51.5 24.4-94.2 16.4-42.6 39.3-67.9 23.5-25.3 50.2-25.3 19.6 0 30.9 17.3 11.2 17.3 11.2 43.6 0 72.6-60.9 126.5h52.5q7.5 0 10.8 3.3 3.3 3.3 3.3 12.2 0 32.3-53 32.3h-57.2q-0.9 23.5-0.9 36.6 0 48.7 11.2 68.4 11.8 19.7 36.6 19.7 20.2 0 35.6-12.2 15.5-12.2 36.6-36.5 5.6-6.6 12.6-6.6zm-82-259.6q-7 0-15.9 17.8-8.5 17.3-16.4 48.7-7.5 30.9-12.7 68.9 27.7-23.9 41.3-53.4 14-30 14-54.4 0-27.6-10.3-27.6zm114.8 366.4q-29 0-46.4-21-17.3-21.1-17.3-55.3 0-37.5 17.3-70.8 17.4-33.8 46-53.9 29-20.6 61.4-20.6 10.3 0 13.5 4.2 3.8 3.7 6.1 14 9.9-1.8 20.7-1.8 22.9 0 22.9 16.4 0 9.8-7 46.8-10.8 53.9-10.8 75 0 7.1 3.3 11.3 3.7 4.2 9.4 4.2 8.9 0 21.5-11.3 12.7-11.7 34.2-37.4 5.7-6.6 12.7-6.6 6.1 0 9.4 5.6 3.7 5.6 3.7 15.5 0 18.7-8.9 29-19.2 23.9-40.8 40.3-21.5 16.4-41.7 16.4-15.4 0-28.6-10.3-12.6-10.7-19.2-29-24.3 39.3-61.4 39.3zm16.9-47.3q10.3 0 19.7-12.2 9.4-12.2 13.6-32.3l17.3-86.2q-19.7 0.4-36.5 15-16.4 14-26.3 37.4-9.8 23.5-9.8 49.7 0 14.5 5.6 21.6 6.1 7 16.4 7zm207.2-204.3q-19.7 0-29.6-8.9-9.8-9.4-9.8-25.8 0-16.4 12.6-27.2 13.2-11.2 32.4-11.2 17.3 0 28.1 8.4 10.8 8.4 10.8 23.9 0 18.7-12.2 30-12.2 10.8-32.3 10.8zm-3.8 251.6q-30.5 0-44.5-21.5-13.6-21.6-13.6-57.2 0-21.1 5.1-53.9 5.7-33.3 14.1-61.9 4.2-14.9 11.3-20.6 7-5.6 22.4-5.6 23.9 0 23.9 15.9 0 11.8-8.9 54.4-11.2 51.6-11.2 69.8 0 14.1 3.7 21.6 3.8 7.5 12.7 7.5 8.4 0 21.1-11.7 12.6-11.7 33.7-37 5.7-6.6 12.7-6.6 6.1 0 9.4 5.6 3.7 5.6 3.7 15.5 0 18.7-8.9 29-46.4 56.7-86.7 56.7zm193.1-68.4q5.1-4.7 10.3-4.7 5.6 0 8.9 6.6 3.8 6.1 3.8 15 0 19.7-14.1 31.4-24.4 20.1-55.3 20.1-44.5 0-65.2-37-20.6-37.5-20.6-97.5 0-57.1 14.6-130.2 15-73.2 43.5-125.6 29.1-52.5 68.9-52.5 22.5 0 35.2 21.1 13.1 20.6 13.1 59.5 0 55.7-30.9 129.3-30.5 73.6-83.4 145.3 3.2 19.2 11.7 27.7 8.4 8.4 22.9 8.4 8 0 17.8-4.7 10.4-4.7 18.8-12.2zm-15.5-328q-10.8 0-24.3 38.9-13.6 38.9-23.9 96.5-10.4 57.6-11.3 110.6 33.3-54.8 53-109.7 19.6-55.3 19.6-100.7 0-35.6-13.1-35.6zm102.5 278.8q-11.4 0.9-17-6.6-5.2-7.4-2.8-21 2.3-12.7 9.5-18.8 7.7-6.1 20.1-7l97.8-9.4q11.8-0.9 16.7 6.1 5.3 6.6 2.9 19.7-4.6 25.3-29.4 27.6zm325.9-15.9q13.1 0 13.1 19.7 0 37-58.1 37-11.3 0-32.4-4.2 6.1 29 9.9 64.7 4.2 35.1 4.2 58.1 0 50.6-16.4 77.3-16.4 26.7-43.1 26.7-33.8 0-48.3-47.8-14.1-47.8-14.1-144.3 0-90 19.3-182.3 19.6-92.8 53.4-153.3 34.2-60.9 75-60.9 22 0 34.2 19.7 12.6 19.7 12.6 52.9 0 110.2-131.7 240-4.6 45.9-4.6 80.6 0 48.3 3.2 99.3 3.3 50.7 10.8 50.7 14.1 0 14.1-48.8 0-36.5-5.2-70.7-4.7-34.3-13.1-72.2-0.5-6.1 3.7-15.5 4.7-9.4 11.3-16.4 6.6-7 11.7-7 9.4 0 22.5 0.9 4.2 0.5 9.8 0.5 18.8 0 41.8-3.3 3.7-0.5 7.9-0.9 4.2-0.5 8.5-0.5zm-47.4-262.9q-8.4 0-21.1 28.6-12.2 28.6-24.3 75.9-12.2 46.9-21.1 99.4 37.5-42.7 57.6-88.6 20.2-46.4 20.6-86.7 0-28.6-11.7-28.6z"/><path class="b" d="m1541.6 441.1q-3.2 0-5.8-3.4-2.4-3.7-4.1-7.9-1.5-4.5-1.5-5.8 0-1.8 1.7-3.4 1.8-1.7 3.6-1.7 1.1 0 1.8 1 0.6 0.8 2 3 1.6 2.9 2.8 3.8 2.1 1.6 3.4 6 1.5 4.5 1.5 5.9 0 2.5-5.4 2.5zm-4.4 0q-3.1 0-5.7-3.4-2.5-3.7-4.1-7.9-1.5-4.5-1.5-5.8 0-1.8 1.6-3.4 1.8-1.7 3.7-1.7 1.1 0 1.8 1 0.6 0.8 1.9 3 1.7 2.9 2.8 3.8 2.2 1.6 3.5 6 1.4 4.5 1.4 5.9 0 2.5-5.4 2.5zm35.9-111q-3.1 0-5.6-1.8-2.5-2-3.9-4.3-1.5-2.3-1.5-3.4 0-1.8 1.6-3.5 1.8-1.6 3.6-1.6 1.2 0 2 1.1 1 1 2.1 3.2 1.2 2.3 2.3 3.4 0.5 0.5 2 2.1 1.7 1.5 1.7 2 0 2.8-4.3 2.8zm-7.6 138.8q-6.9 0-11.8-2.3-4.9-2.5-7.4-5.8-2.4-3.3-2.4-6.2 0-1.3 0.9-2.7 1.2-1.3 1.9-1.3 0.9 0 1.4 0.8 0.7 0.9 1 1.4 3.3 4.4 6.4 6.7 3.3 2.3 7.9 2.3 7.2 0 10-4.8 2.8-4.9 2.8-14.9 0-5.4-0.8-13.5-0.7-8.2-1.5-15.4-0.2-2.3-0.5-4.6-0.3-2.3-0.5-4.6-1-11.2-3.3-26.1-1.6-11-1.6-13.8 0-2.3 0.5-3 0.5-0.8 2.6-0.8 3 0 4.5 4.1 1.6 4 2.2 12.2 0.7 9.8 3 28.4 3.3 30.2 3.3 36.3 0 13.8-5.1 20.7-5.1 6.9-13.5 6.9zm3.3-138.8q-3.2 0-5.6-1.8-2.5-2-4-4.3-1.4-2.3-1.4-3.4 0-1.8 1.6-3.5 1.8-1.6 3.6-1.6 1.2 0 2 1.1 1 1 2.1 3.2 1.2 2.3 2.3 3.4 0.5 0.5 2 2.1 1.6 1.5 1.6 2 0 2.8-4.2 2.8zm-7.6 138.8q-6.9 0-11.8-2.3-4.9-2.5-7.4-5.8-2.5-3.3-2.5-6.2 0-1.3 1-2.7 1.2-1.3 1.8-1.3 1 0 1.5 0.8 0.7 0.9 1 1.4 3.3 4.4 6.4 6.7 3.3 2.3 7.9 2.3 7.2 0 10-4.8 2.8-4.9 2.8-14.9 0-5.4-0.8-13.5-0.7-8.2-1.5-15.4-0.2-2.3-0.5-4.6-0.3-2.3-0.5-4.6-1-11.2-3.3-26.1-1.6-11-1.6-13.8 0-2.3 0.5-3 0.5-0.8 2.6-0.8 2.9 0 4.4 4.1 1.7 4 2.3 12.2 0.7 9.8 3 28.4 3.3 30.2 3.3 36.3 0 13.8-5.1 20.7-5.1 6.9-13.5 6.9zm63.4-26.3q-7 0-9.5-1.3-2.4-1.3-2.4-3.6 0-1.5 3.7-5.1 3.8-3.8 5.1-3.8 2 0 2 0.8 0 0.7-0.8 1.3-0.8 0.7-0.8 1.2 0 0.6 1.9 1.3 2.2 0.6 5.1 0.6 6.9 0 13.8-2.4 7.1-2.6 11.5-6.8 4.4-4.1 4.4-8.7 0-4.4-2.8-7-2.7-2.6-7-3.8-4.1-1.3-14-3.6-10.8-2.5-16.9-4.3-5.9-1.9-9.5-4.7-3.6-3-3.6-7.4 0-7.9 7.7-14.5 7.7-6.5 17.7-10.3 10-3.8 15.5-3.8 5.5 0 5.5 3.3 0 2-1.3 4.4-1.3 2.3-3.9 2.3-1 0-2.1-0.6-1.2-0.9-2.3-0.9-3.3 0-10.4 2.2-7 2.1-12.8 6.4-5.7 4.3-5.7 10.3 0 4 4.4 5.9 4.6 1.8 16.9 4.6 1.5 0.5 3 0.9 1.4 0.1 2.6 0.4 12.6 3 19.4 6.8 6.7 3.8 6.7 11.3 0 7.2-5.9 14-5.8 6.5-15.3 10.6-9.5 4-19.9 4zm-4.3 0q-7 0-9.5-1.3-2.5-1.3-2.5-3.6 0-1.5 3.8-5.1 3.8-3.8 5.1-3.8 2 0 2 0.8 0 0.7-0.9 1.3-0.8 0.7-0.8 1.2 0 0.6 2 1.3 2.1 0.6 5.1 0.6 6.9 0 13.8-2.4 7-2.6 11.5-6.8 4.4-4.1 4.4-8.7 0-4.4-2.8-7-2.8-2.6-7-3.8-4.2-1.3-14-3.6-10.8-2.5-16.9-4.3-5.9-1.9-9.5-4.7-3.7-3-3.7-7.4 0-7.9 7.8-14.5 7.7-6.5 17.7-10.3 10-3.8 15.4-3.8 5.6 0 5.6 3.3 0 2-1.3 4.4-1.3 2.3-3.9 2.3-1 0-2.2-0.6-1.1-0.9-2.3-0.9-3.3 0-10.3 2.2-7.1 2.1-12.8 6.4-5.8 4.3-5.8 10.3 0 4 4.5 5.9 4.6 1.8 16.9 4.6 1.5 0.5 2.9 0.9 1.5 0.1 2.7 0.4 12.6 3 19.3 6.8 6.8 3.8 6.8 11.3 0 7.2-5.9 14-5.8 6.5-15.3 10.6-9.5 4-19.9 4z"/></svg>
