<svg version="1.2" xmlns="http://www.w3.org/2000/svg" viewBox="0 0 1364 500"><style>.a{fill:#d2d2d2}.b{fill:#b05000}</style><path class="a" d="m149.9 319.6h28.6q0.2 13.6-2.9 25.2-3 11.4-9.4 19.8-6.5 8.4-16.1 13.3-9.5 4.6-22.2 4.6-9.8 0-17.7-3.2-7.8-3.4-14.6-8.4-6.6-5-12.4-10.9-5.5-5.9-11-10.9-5.4-5-10.8-8.2-5.3-3.4-11.4-3.4-10.5 0-15.7 8.4-5 8.4-5 26.4h-28.6q-0.4-13.6 2.7-25 3.2-11.6 9.4-20 6.5-8.6 15.9-13.2 9.7-4.9 22.4-4.9 9.8 0 17.7 3.4 7.8 3.3 14.4 8.3 6.8 5 12.4 10.9 5.7 5.9 11.1 10.9 5.5 5 10.9 8.4 5.3 3.2 11.4 3.2 11.3 0 16.1-8.2 4.8-8.3 4.8-26.5zm112.3-108.8l4.4-34h26l-4.7 34.9q9.3 0.8 18.6 2.3 9.5 1.4 17.5 3.4v27.5q-9.8-2.5-19.8-4.3-10-1.8-19.7-2.7l-10.2 76.5q12 4.7 23.8 10.2 11.8 5.4 21.1 12.9 9.5 7.3 15.2 17.5 5.9 10.2 5.9 24.3 0 15-6.1 26.6-6.1 11.6-17 19.7-10.9 8-26.2 12.7-15.4 4.4-33.8 5.3l-5.9 42.6h-26.1l5.9-42.6q-14.5-1-27.7-3-13.1-2.1-22.7-4.6v-29.7q11.2 3.9 24.5 6.4 13.4 2.5 29.6 3.4l10.6-80.4q-11.6-4.5-22.9-9.7-11.3-5.1-20.2-12.3-8.8-7.3-14.3-17.1-5.5-9.9-5.5-23.5 0-11 4.6-21.8 4.7-10.9 14.5-19.4 9.8-8.8 24.8-14.3 15-5.8 35.8-6.8zm-12.7 93.8l9.1-67q-22.3 1.9-32.7 10.5-10.2 8.4-10.2 21.6 0 12.4 8.4 20.4 8.6 7.9 25.4 14.5zm20.4 40.9l-9.2 70.6q24.2-1.8 35.1-10.7 11.1-8.9 11.1-24.3 0-6.4-2.4-11.5-2.3-5.1-6.9-9.2-4.7-4.2-11.7-7.7-6.7-3.6-16-7.2z"/><path class="b" d="m643.9 336.5q6.1 0 9.4 5.6 3.7 5.6 3.7 15.5 0 18.7-8.9 29-20.1 24.9-44 40.8-23.9 15.9-54.8 15.9-95.6 0-95.6-134.5 0-20.6 1.4-41.7h-18.3q-14.1 0-19.2-5.1-4.7-5.2-4.7-16.4 0-26.3 21.1-26.3h26.7q7.9-51.5 24.4-94.2 16.4-42.6 39.3-67.9 23.5-25.3 50.2-25.3 19.6 0 30.9 17.3 11.2 17.3 11.2 43.6 0 72.6-60.9 126.5h52.5q7.5 0 10.8 3.3 3.3 3.3 3.3 12.2 0 32.3-53 32.3h-57.2q-0.9 23.5-0.9 36.6 0 48.7 11.2 68.4 11.8 19.7 36.6 19.7 20.2 0 35.6-12.2 15.5-12.2 36.6-36.5 5.6-6.6 12.6-6.6zm-82-259.6q-7 0-15.9 17.8-8.5 17.3-16.4 48.7-7.5 30.9-12.7 68.9 27.7-23.9 41.3-53.4 14-30 14-54.4 0-27.6-10.3-27.6zm114.8 366.4q-29 0-46.4-21-17.3-21.1-17.3-55.3 0-37.5 17.3-70.8 17.4-33.8 46-53.9 29-20.6 61.4-20.6 10.3 0 13.5 4.2 3.8 3.7 6.1 14 9.9-1.8 20.7-1.8 22.9 0 22.9 16.4 0 9.8-7 46.8-10.8 53.9-10.8 75 0 7.1 3.3 11.3 3.7 4.2 9.4 4.2 8.9 0 21.5-11.3 12.7-11.7 34.2-37.4 5.7-6.6 12.7-6.6 6.1 0 9.4 5.6 3.7 5.6 3.7 15.5 0 18.7-8.9 29-19.2 23.9-40.8 40.3-21.5 16.4-41.7 16.4-15.4 0-28.6-10.3-12.6-10.7-19.2-29-24.3 39.3-61.4 39.3zm16.9-47.3q10.3 0 19.7-12.2 9.4-12.2 13.6-32.3l17.3-86.2q-19.7 0.4-36.5 15-16.4 14-26.3 37.4-9.8 23.5-9.8 49.7 0 14.5 5.6 21.6 6.1 7 16.4 7zm207.2-204.3q-19.7 0-29.6-8.9-9.8-9.4-9.8-25.8 0-16.4 12.6-27.2 13.2-11.2 32.4-11.2 17.3 0 28.1 8.4 10.8 8.4 10.8 23.9 0 18.7-12.2 30-12.2 10.8-32.3 10.8zm-3.8 251.6q-30.5 0-44.5-21.5-13.6-21.6-13.6-57.2 0-21.1 5.1-53.9 5.7-33.3 14.1-61.9 4.2-14.9 11.3-20.6 7-5.6 22.4-5.6 23.9 0 23.9 15.9 0 11.8-8.9 54.4-11.2 51.6-11.2 69.8 0 14.1 3.7 21.6 3.8 7.5 12.7 7.5 8.4 0 21.1-11.7 12.6-11.7 33.7-37 5.7-6.6 12.7-6.6 6.1 0 9.4 5.6 3.7 5.6 3.7 15.5 0 18.7-8.9 29-46.4 56.7-86.7 56.7zm193.1-68.4q5.1-4.7 10.3-4.7 5.6 0 8.9 6.6 3.8 6.1 3.8 15 0 19.7-14.1 31.4-24.4 20.1-55.3 20.1-44.5 0-65.2-37-20.6-37.5-20.6-97.5 0-57.1 14.6-130.2 15-73.2 43.5-125.6 29.1-52.5 68.9-52.5 22.5 0 35.2 21.1 13.1 20.6 13.1 59.5 0 55.7-30.9 129.3-30.5 73.6-83.4 145.3 3.2 19.2 11.7 27.7 8.4 8.4 22.9 8.4 8 0 17.8-4.7 10.4-4.7 18.8-12.2zm-15.5-328q-10.8 0-24.3 38.9-13.6 38.9-23.9 96.5-10.4 57.6-11.3 110.6 33.3-54.8 53-109.7 19.6-55.3 19.6-100.7 0-35.6-13.1-35.6z"/><path class="b" d="m1175.7 444.2q-4.7 0-8.7-5.2-3.7-5.4-6.1-11.9-2.2-6.6-2.2-8.6 0-2.7 2.4-5.2 2.7-2.5 5.5-2.5 1.7 0 2.7 1.5 1 1.3 2.9 4.5 2.5 4.4 4.2 5.6 3.2 2.5 5.2 9.2 2.2 6.6 2.2 8.9 0 3.7-8.1 3.7zm-6.5 0q-4.7 0-8.7-5.2-3.7-5.4-6.1-11.9-2.3-6.6-2.3-8.6 0-2.7 2.5-5.2 2.7-2.5 5.4-2.5 1.8 0 2.8 1.5 0.9 1.3 2.9 4.5 2.5 4.4 4.2 5.6 3.2 2.5 5.2 9.2 2.2 6.6 2.2 8.9 0 3.7-8.1 3.7zm53.9-166.9q-4.7 0-8.4-2.7-3.7-3-5.9-6.5-2.2-3.4-2.2-5.1 0-2.8 2.4-5.2 2.7-2.5 5.5-2.5 1.7 0 2.9 1.7 1.5 1.5 3.2 4.7 1.8 3.5 3.5 5.2 0.7 0.7 2.9 3.2 2.5 2.2 2.5 3 0 4.2-6.4 4.2zm-11.4 208.6q-10.3 0-17.7-3.5-7.4-3.7-11.2-8.6-3.7-4.9-3.7-9.4 0-2 1.5-3.9 1.8-2 2.7-2 1.5 0 2.3 1.2 1 1.3 1.4 2 5 6.7 9.7 10.1 4.9 3.5 11.8 3.5 10.9 0 15.1-7.2 4.2-7.4 4.2-22.4 0-8.2-1.3-20.3-0.9-12.3-2.2-23.2-0.2-3.5-0.7-6.9-0.5-3.5-0.8-6.9-1.4-16.8-4.9-39.3-2.5-16.5-2.5-20.7 0-3.5 0.8-4.5 0.7-1.2 3.9-1.2 4.5 0 6.7 6.2 2.5 5.9 3.5 18.2 0.9 14.9 4.4 42.8 4.9 45.4 4.9 54.5 0 20.8-7.6 31.1-7.7 10.4-20.3 10.4zm4.9-208.6q-4.7 0-8.4-2.7-3.7-3-5.9-6.5-2.3-3.4-2.3-5.1 0-2.8 2.5-5.2 2.7-2.5 5.4-2.5 1.8 0 3 1.7 1.5 1.5 3.2 4.7 1.7 3.5 3.5 5.2 0.7 0.7 2.9 3.2 2.5 2.2 2.5 3 0 4.2-6.4 4.2zm-11.4 208.6q-10.3 0-17.7-3.5-7.5-3.7-11.2-8.6-3.7-4.9-3.7-9.4 0-2 1.5-3.9 1.7-2 2.7-2 1.5 0 2.3 1.2 0.9 1.3 1.4 2 5 6.7 9.7 10.1 4.9 3.5 11.8 3.5 10.9 0 15.1-7.2 4.2-7.4 4.2-22.4 0-8.2-1.3-20.3-0.9-12.3-2.2-23.2-0.2-3.5-0.7-6.9-0.5-3.5-0.8-6.9-1.4-16.8-4.9-39.3-2.5-16.5-2.5-20.7 0-3.5 0.8-4.5 0.7-1.2 3.9-1.2 4.5 0 6.7 6.2 2.5 5.9 3.4 18.2 1 14.9 4.5 42.8 4.9 45.4 4.9 54.5 0 20.8-7.6 31.1-7.7 10.4-20.3 10.4zm95.4-39.5q-10.6 0-14.3-2-3.7-2-3.7-5.4 0-2.2 5.7-7.7 5.6-5.6 7.6-5.6 3 0 3 1.2 0 1-1.2 2-1.3 1-1.3 1.7 0 1 3 2 3.2 1 7.6 1 10.4 0 20.8-3.7 10.6-4 17.3-10.2 6.6-6.1 6.6-13.1 0-6.6-4.2-10.6-4.2-3.9-10.6-5.6-6.2-2-21-5.5-16.3-3.7-25.4-6.4-8.9-3-14.3-7.2-5.5-4.4-5.5-11.1 0-11.8 11.6-21.7 11.6-9.9 26.7-15.5 15.1-5.7 23.2-5.7 8.4 0 8.4 4.9 0 3-2 6.7-1.9 3.4-5.9 3.4-1.5 0-3.2-1-1.7-1.2-3.5-1.2-4.9 0-15.5 3.2-10.6 3.2-19.3 9.6-8.6 6.5-8.6 15.6 0 5.9 6.7 8.9 6.9 2.7 25.4 6.9 2.2 0.7 4.4 1.2 2.3 0.3 4 0.8 19 4.4 29.1 10.1 10.1 5.7 10.1 17 0 10.9-8.9 21-8.6 9.9-22.9 16.1-14.3 5.9-29.9 5.9zm-6.5 0q-10.6 0-14.3-2-3.7-2-3.7-5.4 0-2.2 5.7-7.7 5.6-5.6 7.6-5.6 3 0 3 1.2 0 1-1.3 2-1.2 1-1.2 1.7 0 1 3 2 3.2 1 7.6 1 10.4 0 20.8-3.7 10.6-4 17.2-10.2 6.7-6.1 6.7-13.1 0-6.6-4.2-10.6-4.2-3.9-10.6-5.6-6.2-2-21-5.5-16.3-3.7-25.4-6.4-8.9-3-14.3-7.2-5.5-4.4-5.5-11.1 0-11.8 11.6-21.7 11.6-9.9 26.7-15.5 15.1-5.7 23.2-5.7 8.4 0 8.4 4.9 0 3-2 6.7-2 3.4-5.9 3.4-1.5 0-3.2-1-1.7-1.2-3.5-1.2-4.9 0-15.5 3.2-10.6 3.2-19.3 9.6-8.6 6.5-8.6 15.6 0 5.9 6.6 8.9 7 2.7 25.5 6.9 2.2 0.7 4.4 1.2 2.2 0.3 4 0.8 19 4.4 29.1 10.1 10.1 5.7 10.1 17 0 10.9-8.9 21-8.6 9.9-22.9 16.1-14.3 5.9-29.9 5.9z"/></svg>
