<svg xmlns="http://www.w3.org/2000/svg" xmlns:xlink="http://www.w3.org/1999/xlink" viewBox="0 0 3258 700"><defs><linearGradient id="a" x1="147.0096" y1="871.2669" x2="147.0096" y2="295.6557" gradientUnits="userSpaceOnUse"><stop offset="0" stop-color="#fff"/><stop offset="1"/></linearGradient><linearGradient id="b" x1="575.4024" y1="0.7624" x2="575.4024" y2="1358.9674" gradientUnits="userSpaceOnUse"><stop offset="0" stop-color="#f10059"/><stop offset="0.02" stop-color="#ff0060"/><stop offset="1" stop-color="#490087"/></linearGradient><mask id="c" x="-18.4411" y="0.7698" width="1160.7853" height="1358.1992" maskUnits="userSpaceOnUse"><rect x="-18.4411" y="743.6507" width="1141.5215" height="596.055" fill="#fff"/><rect x="-18.4411" y="295.6557" width="330.9014" height="575.6112" fill="url(#a)"/></mask><linearGradient id="d" x1="134.9064" y1="1304.2859" x2="724.8945" y2="224.4454" gradientUnits="userSpaceOnUse"><stop offset="0" stop-color="red"/><stop offset="0.5" stop-color="#ff5200"/><stop offset="1" stop-color="#ffb700"/></linearGradient><linearGradient id="e" x1="-76.7077" y1="488.8568" x2="1049.6514" y2="1277.542" gradientUnits="userSpaceOnUse"><stop offset="0" stop-color="#183ca1"/><stop offset="1" stop-color="#00d9c2"/></linearGradient><linearGradient id="f" x1="298.8033" y1="1393.8406" x2="891.0352" y2="309.8932" xlink:href="#d"/><symbol id="g" viewBox="0 0 1145.04 1360.442"><path d="M320.83,1358.9674h-.0029c-118.0022-.0014-227.993-68.7437-280.2147-175.1294l-.0445-.091c-.5653-1.1674-1.13-2.3346-1.6758-3.5018-.5543-1.1658-1.1082-2.3416-1.6519-3.5272q-.8006-1.7436-1.5855-3.497c-2.1012-4.7068-4.1075-9.5452-5.9906-14.44l-.0892-.232-.1934-.5244q-.6438-1.6644-1.2569-3.3288c-.4323-1.1619-.8728-2.3754-1.3033-3.6-.504-1.4261-1.0092-2.8822-1.5138-4.3482l-1.12-3.372c-.4062-1.2565-.7852-2.4485-1.1542-3.6289l-.1436-.4417q-.4635-1.4721-.8971-2.9441-.3174-1.0244-.6047-2.0488l-.4648-1.5915q-.36-1.2279-.6889-2.4553c-.3091-1.0921-.6012-2.1759-.8927-3.2684-.2216-.7986-.4262-1.5969-.6285-2.3956-.1569-.5957-.3132-1.2-.46-1.796-.1964-.7761-.3921-1.5524-.5783-2.3283l-.0277-.117c-.0406-.1738-.078-.3442-.1214-.51l-.0683-.2567-.06-.2519c-.2733-1.1506-.5466-2.3014-.81-3.462-.2722-1.172-.5548-2.4362-.8269-3.7106l-.1272-.5888c-.2722-1.2646-.5343-2.5288-.7854-3.804-.2066-1.0372-.4192-2.1078-.6235-3.18-.153-.759-.295-1.528-.4258-2.286l-.2345-1.3172c-.14-.7607-.2772-1.515-.4-2.2761q-.26-1.47-.4915-2.94s-.0889-.5762-.1078-.7036c-.1334-.8237-.2662-1.6558-.3907-2.4878-.1116-.7046-.2146-1.4179-.3165-2.132-.0928-.617-.1788-1.2413-.263-1.86l-.0158-.1151c-.0953-.6441-.1823-1.2974-.2681-1.9508l-.1272-1.012c-.0824-.65-.1643-1.3008-.239-1.9511-.1367-1.053-.2568-2.1058-.3753-3.1587-.1045-.8645-.1994-1.72-.2847-2.5838-.0975-.88-.1847-1.77-.2615-2.66,0,0-.0635-.5887-.0859-.83-.1046-1.1092-.2038-2.27-.3026-3.4307l-.0772-.9046-.2021-2.6775c-.0533-.6754-.1082-1.4191-.1465-2.169-.0584-.8635-.116-1.7361-.1649-2.6181l-.0542-.9241c-.0741-1.3592-.1342-2.6442-.1939-3.9392-.2174-4.9612-.3266-9.9186-.3266-14.7776V316.8378c0-87.5112,33.9389-168.42,95.5646-227.8215a315.29,315.29,0,0,1,99.7068-65.0188A307.462,307.462,0,0,1,320.8257.7624C383.9845.7624,445.44,20.7,498.5483,58.42L1009.67,421.4464c8.0385,5.7048,15.9545,11.8975,23.5221,18.4024a309.63,309.63,0,0,1,84.9013,117.3524,323.269,323.269,0,0,1,23.8963,137.747c-4.574,98.1662-52.8028,186.8582-132.32,243.3344L498.5485,1301.3092C445.4438,1339.0279,383.9843,1358.9674,320.83,1358.9674ZM319.6675,272.1338c-20.7619,0-43.1712,16.81-43.1712,43.9668v727.5278a43.464,43.464,0,0,0,43.17,43.9606c1.2842,0,2.5767-.0614,3.8551-.1828l.0543-.0136,1.333-.1446q.2733-.03.5464-.0708l.1418-.0208c.4894-.07.9724-.1546,1.4558-.2439.4088-.0747.7926-.1515,1.1768-.2343l.118-.0252c.3746-.0784.7482-.17,1.1226-.261.2786-.0705.5572-.1408.8357-.2162l.2161-.0624-.0448.015.2656-.0818.2678-.0742c.6118-.1694,1.2184-.3612,1.8544-.586l.1808-.0631c.4186-.1431.8432-.2971,1.2618-.4635l.2982-.1156c.1842-.07.3694-.1406.5536-.2212l.582-.2546.16-.0578c.3125-.1363.5926-.2607.8724-.3892.342-.1594.776-.3642,1.2024-.5769l.5-.2492c.1026-.0536.5176-.2779.5176-.2779.5268-.28,1.0481-.5652,1.5687-.8706.2427-.1451.4857-.29.7283-.4416l.2288-.1406c.3386-.2048.683-.4214,1.0216-.6444.244-.16.4492-.3.661-.4448l.31-.2084c.155-.102.3042-.211.4592-.3216l28.8993-20.5269c.1568-.1129.3434-.2446.5585-.39L856.1928,715.8512c.0878-.0632.2379-.1674.3827-.2776l.292-.22a43.6544,43.6544,0,0,0,17.7254-34.8792,45.4434,45.4434,0,0,0-.5232-7.505l-.0666-.4328a43.4421,43.4421,0,0,0-17.839-28.6752L343.9977,280.1028A41.3431,41.3431,0,0,0,319.6675,272.1338Z" fill="url(#b)"/><g mask="url(#c)"><path d="M320.82,1358.969a307.4485,307.4485,0,0,1-117.0784-23.24,315.3249,315.3249,0,0,1-99.7054-65.0211c-61.628-59.404-95.5682-140.31-95.5682-227.8154V316.8466c0-87.5128,33.9382-168.4221,95.5628-227.8236A315.2786,315.2786,0,0,1,203.736,24.0046,307.4591,307.4591,0,0,1,320.8206.77C383.98.77,445.4366,20.7077,498.546,58.4281l511.1258,363.0231a310.53,310.53,0,0,1,99.5226,116.1642,321.7985,321.7985,0,0,1,0,284.508,310.53,310.53,0,0,1-99.5226,116.1642L498.546,1301.3106c-53.1071,37.7187-114.5643,57.6584-177.7119,57.6584ZM319.671,272.1376c-20.7638,0-43.1746,16.81-43.1746,43.9678v727.528c0,27.1578,22.4108,43.9678,43.1746,43.9678a41.9139,41.9139,0,0,0,24.3306-7.9672L856.171,715.87a44.38,44.38,0,0,0,0-72.0012L344.0016,280.1048A41.3529,41.3529,0,0,0,319.671,272.1376Z" fill="url(#d)"/></g><polygon points="8.459 719.342 276.488 927.424 276.488 908.61 8.459 719.342" opacity="0.25"/><path d="M8.6071,387.8583V377.724H1.1086V709.1869h.0058c0,.0279-.0058.0552-.0058.0826a9.4655,9.4655,0,0,0,3.93,7.6982l3.2607,2.25v.0073l900.01,639.8374,233.7988-166.0537Z" fill="url(#e)"/><path d="M8.607,368.4907v19.4008l-3.5682-2.5352a9.4682,9.4682,0,0,1-2.264-13.0442A9.2229,9.2229,0,0,1,8.607,368.4907Z" fill="#222b4d"/><g opacity="0.25"><polygon points="423.319 1014.287 642.559 838.213 693.344 874.246 459.713 1040.185 423.319 1014.287"/></g><g opacity="0.35"><path d="M856.1261,715.8985l.0058-.0039c.1543-.1108.31-.2192.461-.3335l.2744-.207a43.6543,43.6543,0,0,0,17.7256-34.8794c.0185-1.39-.3169-5.4976-.63-8.3189L872.693,660.7l9.4931-6.5391c72.9527-50.2178,114.1792-119.687,119.2237-200.8984l38.47.3232c4.9155,108.624-44.5557,210.6968-132.3359,273.044l-29.0425,20.6318Z"/></g><path d="M320.8282,1358.9679c-117.997,0-227.98-68.7393-280.1968-175.1206-17.73-36.107-27.77-78.5777-29.84-126.229l-1.9272-44.3672,33.7119,28.9082c50.104,42.9643,112.8447,66.6255,176.6636,66.6255A260.0552,260.0552,0,0,0,319.4732,1088.63l2.4517-1.0186,2.6362-.3174a42.02,42.02,0,0,0,19.4409-7.6709l29.1934-20.7329c.28-.1938.56-.3877.84-.5884L856.1925,715.8512l29.04-20.63c77.084-54.75,120.5078-144.8027,116.1592-240.8921l-1.8228-40.2749,32.479,23.8857c36.9942,27.2066,65.6411,62.711,85.1451,105.5269,18.1088,39.7529,27.4794,85.064,27.0991,131.0347-.8765,105.9233-51.2027,204.5332-134.6226,263.7812L498.5479,1301.3092C445.441,1339.0294,383.9864,1358.9679,320.8282,1358.9679Z" fill="url(#f)"/></symbol></defs><title>logo</title><rect width="3258" height="700" fill="none"/><use width="1145.0399" height="1360.4421" transform="translate(-0.0482 0.0226) scale(0.5224 0.5145)" xlink:href="#g"/><path d="M1378.6683,236.0206a140.3888,140.3888,0,0,0-60.4237.0075c-18.9223,4.311-35.0588,12.8654-47.5356,25.3578-18.76,18.7843-28.6763,45.8914-28.6763,78.391v79.8552c0,32.277,9.9165,59.2324,28.6773,77.9523,18.7109,18.6707,45.601,28.54,77.7631,28.54,31.4014,0,58.3072-9.8419,77.8082-28.4608a87.8149,87.8149,0,0,0,27.6557-63.9686v-9.06h-61.0522l-.0064,5.1105c-.0122,9.7585-3.2505,41.5973-44.4053,41.5973-13.7778,0-24.4877-3.8825-31.831-11.54-8.5918-8.958-12.8228-23.2959-12.5747-42.6822V400.085h150.8432v-.5235h.0025V339.7769c0-32.5006-9.916-59.6077-28.6763-78.391C1413.7533,248.8861,1397.6053,240.3291,1378.6683,236.0206Zm14.6984,117.9h-90.2754l-.0005-11.1167c.4688-36.6545,15.7378-55.24,45.3823-55.24,29.7891,0,44.8936,18.5807,44.8936,55.2262Zm301.6515-116.1154.0038-.0117h-64.9273l-.003.0117h-.76l-52.4565,201.0168-53.42-201.0168H1522.7l-.0032-.0117h-65.9038l.0038.0117h-1.3871l92.4453,283.2968H1604.45l91.9531-283.2968Zm-668.8944-1.772a140.3838,140.3838,0,0,0-60.4793-.005c-18.9223,4.311-35.0588,12.8654-47.5356,25.3578-18.76,18.7843-28.6763,45.8914-28.6763,78.391v79.8552c0,32.277,9.9165,59.2324,28.6773,77.9523,18.7109,18.6707,45.601,28.54,77.7631,28.54,31.4014,0,58.3072-9.8419,77.8082-28.4608a87.8149,87.8149,0,0,0,27.6557-63.9686v-9.06h-61.0522l-.0064,5.1105c-.0122,9.7585-3.25,41.5973-44.4053,41.5973-13.7778,0-24.4877-3.8825-31.8315-11.54-8.5913-8.958-12.8223-23.2959-12.5742-42.6822V400.085h150.77v-.5235h.0757V339.7769c0-32.5006-9.916-59.6077-28.6763-78.391C1061.1654,248.8983,1045.0369,240.3457,1026.1238,236.0331Zm14.6428,117.8874H950.4907l0-11.1167c.4693-36.6545,15.7383-55.24,45.3828-55.24,29.7891,0,44.8936,18.5807,44.8936,55.2262ZM1213.87,470.3989a26.46,26.46,0,0,1-11.5371-7.6179,28.4549,28.4549,0,0,1-5.8852-12.1758,82.174,82.174,0,0,1-1.6812-18.0612V149.1258h-61.0581V443.9189a131.3714,131.3714,0,0,0,4.187,34.6491,56.5123,56.5123,0,0,0,14.669,25.6807c6.9165,6.8435,16.331,12.1662,27.9809,15.82,10.8062,3.3911,24.4292,5.3724,40.49,5.89l4.32.1392,8.6132-51.3261-5.0224-.78A82.887,82.887,0,0,1,1213.87,470.3989ZM873.7817,234.2207l-4.6084-.3512c-10.0273-.7636-20.6562-1.1345-32.4931-1.1345a139.2453,139.2453,0,0,0-31.5745,3.2473c-15.6849,3.6-28.0147,10.2577-37.3,20.088-14.7661,15.6323-21.9439,39.399-21.9439,72.6579V521.1019h61.5464V334.7548c0-34.9075,9.9731-46.6889,39.5239-46.6889,7.416,0,16.5323.3774,22.5908.73l5.2535.3061v-54.758l-.9947-.078Zm2037.8472-1.3383c-32.0322,0-58.7412,9.8086-77.2383,28.3662-18.5156,18.5747-28.3017,45.42-28.3017,77.6333v61.9829c0,66.774,30.7451,100.6309,91.3818,100.6309a100.4315,100.4315,0,0,0,62.8857-21.6987v17.7021c0,34.8989-15.3281,51.1533-48.2392,51.1533-42.9395,0-48.7285-16.4834-48.7285-32.6074v-4.9727h-54.37v9.8531c0,50.4155,36.6142,78.1806,103.0986,78.1806,31.0254,0,56.8682-8.2734,74.7353-23.9267,18.875-16.5357,28.8516-41.3721,28.8516-71.8238V338.8819c0-32.2475-9.5859-59.082-27.7207-77.602C2969.791,242.7022,2943.3887,232.8824,2911.6289,232.8824Zm48.7275,189.9839c-15.7128,17.0635-36.3593,27.2-55.5625,27.2-31.2021,0-43.3584-15.437-43.3584-55.0581v-50.269c0-40.7437,16.8877-61.4029,50.1934-61.4029,16.0928,0,28.3184,5.0606,36.3379,15.041,8.2207,10.232,12.39,25.83,12.39,46.3619ZM1830.363,235.2836a147.8642,147.8642,0,0,0-28.2375-2.5486,129.2386,129.2386,0,0,0-28.4232,3.0263c-19.16,4.2482-35.4872,12.9884-48.0675,25.8844-16.48,16.8925-25.5562,40.0029-25.5562,65.0731v14.5841h61.0586v-9.06c0-28.4884,14.5566-44.1775,40.9883-44.1775,27.6313,0,40.5,15.7931,40.5,49.7022v32.8247c-14.2764-3.8-36.2437-7.732-56.61-7.732-64.16,0-92.7715,24.9435-92.7715,80.8782,0,29.0014,7.9976,49.596,24.45,62.96,16.0909,13.0712,40.8345,19.4249,75.6446,19.4249,36.1479,0,63.8872-8.0294,82.4458-23.8652,18.8369-16.0724,28.3877-40.1547,28.3877-71.578V331.7415c0-31.5852-8.96-56.2614-26.63-73.3437C1865.4338,246.6931,1849.63,238.9635,1830.363,235.2836ZM1842.626,428.17c0,39.0036-27.6,47.1908-50.7525,47.1908-14.0322,0-23.2163-2.7806-28.9023-8.75-5.07-5.3226-7.4268-13.4279-7.2041-24.8807,0-24.6008,10.8852-34.635,37.5713-34.635a158.5492,158.5492,0,0,1,49.2876,7.7661Zm1414.9756-28.19V338.8819c0-65.3828-40.627-105.9995-106.0274-105.9995s-106.0283,40.6167-106.0283,105.9995v81.0166c0,65.3828,40.6279,106,106.0283,106,31.0625,0,57.6973-9.7358,77.0254-28.1548a87.3266,87.3266,0,0,0,27.5381-63.6909v-9.076h-54.3711V429.66c0,28.669-18.7637,45.7847-50.1924,45.7847-33.63,0-50.6816-20.0019-50.6816-59.45V399.9805ZM3100.4053,353.92V343.3311c.4511-39.81,17.667-59.9951,51.1689-59.9951,16.499,0,29.1514,4.981,37.6045,14.8037,8.6768,10.0825,13.0762,25.2681,13.0762,45.1348V353.92Zm-378.9678-98.5146a101.7221,101.7221,0,0,0-62.8848-22.5225c-30.5029,0-53.7607,9.0591-69.1269,26.9258-14.7676,17.1714-22.2559,42.6265-22.2559,75.6572v84.4331c0,65.3828,40.253,106,105.0518,106,31.9736,0,58.5224-9.8174,76.7754-28.3911,18.1787-18.4985,27.7881-45.3349,27.7881-77.6084V149.1258h-55.3477Zm0,158.6372c0,40.7436-16.5586,61.4023-49.2158,61.4023-32.9815,0-49.7051-20.6587-49.7051-61.4023v-72.72c0-40.4931,12.5615-57.01,43.3584-57.01,21.1992,0,42.9033,14.8481,55.5625,29.9893Zm-657.3437-178.59a130.8687,130.8687,0,0,0-53.1355.0169c-19.3851,4.118-35.9144,12.9225-48.6214,26.06-18.1826,18.7989-27.793,45.6834-27.793,77.7464V521.1019H1996.09v-175.8c0-51.3024,23.6709-57.2356,41.4766-57.2356,26.3594,0,41.4775,20.8615,41.4775,57.2356v175.8H2140.59V339.275c0-32.063-9.61-58.9475-27.7929-77.7464C2100.0723,248.3728,2083.5144,239.5622,2064.0938,235.4517Zm371.0175-2.5693c-65.4,0-106.0283,40.6167-106.0283,105.9995v81.0166c0,65.3828,40.6279,106,106.0283,106,31.0625,0,57.6973-9.7358,77.0254-28.1548a87.3266,87.3266,0,0,0,27.5381-63.6909v-9.076h-54.3711V429.66c0,28.669-18.7637,45.7847-50.1924,45.7847-33.63,0-50.6816-20.0019-50.6816-59.45V399.9805h156.709V338.8819C2541.1387,273.4991,2500.5117,232.8824,2435.1113,232.8824ZM2485.792,353.92h-101.85V343.3311c.4512-39.81,17.667-59.9951,51.1689-59.9951,16.4991,0,29.1514,4.981,37.6045,14.8037,8.6768,10.0825,13.0762,25.2681,13.0762,45.1348ZM2280.9648,471.8451c-26.2988,0-38.5478-14.9952-38.5478-47.1908V290.0753h68.832v-52.27h-.9941v-.0117H2242.417V167.4923h-.9941V166.98h-50.7706l-.0459.5128h-.86L2183.4,237.7934h-26.92v.0117h-.9942v52.27h25.3848V425.1568c0,33.38,7.4355,58.8092,22.1006,75.58,15.0234,17.1794,38.1435,25.89,68.7178,25.89a250.6633,250.6633,0,0,0,40.3261-3.9137l4.1153-.7416V467.6851l-6.001,1.3054A132.5492,132.5492,0,0,1,2280.9648,471.8451Z" fill="#111f33"/></svg>
