<svg xmlns="http://www.w3.org/2000/svg" xmlns:xlink="http://www.w3.org/1999/xlink" viewBox="0 0 911 911"><defs><linearGradient id="a" x1="147.0096" y1="871.2669" x2="147.0096" y2="295.6557" gradientUnits="userSpaceOnUse"><stop offset="0" stop-color="#fff"/><stop offset="1"/></linearGradient><linearGradient id="b" x1="575.4024" y1="0.7624" x2="575.4024" y2="1358.9674" gradientUnits="userSpaceOnUse"><stop offset="0" stop-color="#f10059"/><stop offset="0.02" stop-color="#ff0060"/><stop offset="1" stop-color="#490087"/></linearGradient><mask id="c" x="-18.4411" y="0.7698" width="1160.7853" height="1358.1992" maskUnits="userSpaceOnUse"><rect x="-18.4411" y="743.6507" width="1141.5215" height="596.055" fill="#fff"/><rect x="-18.4411" y="295.6557" width="330.9014" height="575.6112" fill="url(#a)"/></mask><linearGradient id="d" x1="134.9064" y1="1304.2859" x2="724.8945" y2="224.4454" gradientUnits="userSpaceOnUse"><stop offset="0" stop-color="red"/><stop offset="0.5" stop-color="#ff5200"/><stop offset="1" stop-color="#ffb700"/></linearGradient><linearGradient id="e" x1="-76.7077" y1="488.8568" x2="1049.6514" y2="1277.542" gradientUnits="userSpaceOnUse"><stop offset="0" stop-color="#183ca1"/><stop offset="1" stop-color="#00d9c2"/></linearGradient><linearGradient id="f" x1="298.8033" y1="1393.8406" x2="891.0352" y2="309.8932" xlink:href="#d"/><symbol id="g" viewBox="0 0 1145.04 1360.442"><path d="M320.83,1358.9674h-.0029c-118.0022-.0014-227.993-68.7437-280.2147-175.1294l-.0445-.091c-.5653-1.1674-1.13-2.3346-1.6758-3.5018-.5543-1.1658-1.1082-2.3416-1.6519-3.5272q-.8006-1.7436-1.5855-3.497c-2.1012-4.7068-4.1075-9.5452-5.9906-14.44l-.0892-.232-.1934-.5244q-.6438-1.6644-1.2569-3.3288c-.4323-1.1619-.8728-2.3754-1.3033-3.6-.504-1.4261-1.0092-2.8822-1.5138-4.3482l-1.12-3.372c-.4062-1.2565-.7852-2.4485-1.1542-3.6289l-.1436-.4417q-.4635-1.4721-.8971-2.9441-.3174-1.0244-.6047-2.0488l-.4648-1.5915q-.36-1.2279-.6889-2.4553c-.3091-1.0921-.6012-2.1759-.8927-3.2684-.2216-.7986-.4262-1.5969-.6285-2.3956-.1569-.5957-.3132-1.2-.46-1.796-.1964-.7761-.3921-1.5524-.5783-2.3283l-.0277-.117c-.0406-.1738-.078-.3442-.1214-.51l-.0683-.2567-.06-.2519c-.2733-1.1506-.5466-2.3014-.81-3.462-.2722-1.172-.5548-2.4362-.8269-3.7106l-.1272-.5888c-.2722-1.2646-.5343-2.5288-.7854-3.804-.2066-1.0372-.4192-2.1078-.6235-3.18-.153-.759-.295-1.528-.4258-2.286l-.2345-1.3172c-.14-.7607-.2772-1.515-.4-2.2761q-.26-1.47-.4915-2.94s-.0889-.5762-.1078-.7036c-.1334-.8237-.2662-1.6558-.3907-2.4878-.1116-.7046-.2146-1.4179-.3165-2.132-.0928-.617-.1788-1.2413-.263-1.86l-.0158-.1151c-.0953-.6441-.1823-1.2974-.2681-1.9508l-.1272-1.012c-.0824-.65-.1643-1.3008-.239-1.9511-.1367-1.053-.2568-2.1058-.3753-3.1587-.1045-.8645-.1994-1.72-.2847-2.5838-.0975-.88-.1847-1.77-.2615-2.66,0,0-.0635-.5887-.0859-.83-.1046-1.1092-.2038-2.27-.3026-3.4307l-.0772-.9046-.2021-2.6775c-.0533-.6754-.1082-1.4191-.1465-2.169-.0584-.8635-.116-1.7361-.1649-2.6181l-.0542-.9241c-.0741-1.3592-.1342-2.6442-.1939-3.9392-.2174-4.9612-.3266-9.9186-.3266-14.7776V316.8378c0-87.5112,33.9389-168.42,95.5646-227.8215a315.29,315.29,0,0,1,99.7068-65.0188A307.462,307.462,0,0,1,320.8257.7624C383.9845.7624,445.44,20.7,498.5483,58.42L1009.67,421.4464c8.0385,5.7048,15.9545,11.8975,23.5221,18.4024a309.63,309.63,0,0,1,84.9013,117.3524,323.269,323.269,0,0,1,23.8963,137.747c-4.574,98.1662-52.8028,186.8582-132.32,243.3344L498.5485,1301.3092C445.4438,1339.0279,383.9843,1358.9674,320.83,1358.9674ZM319.6675,272.1338c-20.7619,0-43.1712,16.81-43.1712,43.9668v727.5278a43.464,43.464,0,0,0,43.17,43.9606c1.2842,0,2.5767-.0614,3.8551-.1828l.0543-.0136,1.333-.1446q.2733-.03.5464-.0708l.1418-.0208c.4894-.07.9724-.1546,1.4558-.2439.4088-.0747.7926-.1515,1.1768-.2343l.118-.0252c.3746-.0784.7482-.17,1.1226-.261.2786-.0705.5572-.1408.8357-.2162l.2161-.0624-.0448.015.2656-.0818.2678-.0742c.6118-.1694,1.2184-.3612,1.8544-.586l.1808-.0631c.4186-.1431.8432-.2971,1.2618-.4635l.2982-.1156c.1842-.07.3694-.1406.5536-.2212l.582-.2546.16-.0578c.3125-.1363.5926-.2607.8724-.3892.342-.1594.776-.3642,1.2024-.5769l.5-.2492c.1026-.0536.5176-.2779.5176-.2779.5268-.28,1.0481-.5652,1.5687-.8706.2427-.1451.4857-.29.7283-.4416l.2288-.1406c.3386-.2048.683-.4214,1.0216-.6444.244-.16.4492-.3.661-.4448l.31-.2084c.155-.102.3042-.211.4592-.3216l28.8993-20.5269c.1568-.1129.3434-.2446.5585-.39L856.1928,715.8512c.0878-.0632.2379-.1674.3827-.2776l.292-.22a43.6544,43.6544,0,0,0,17.7254-34.8792,45.4434,45.4434,0,0,0-.5232-7.505l-.0666-.4328a43.4421,43.4421,0,0,0-17.839-28.6752L343.9977,280.1028A41.3431,41.3431,0,0,0,319.6675,272.1338Z" fill="url(#b)"/><g mask="url(#c)"><path d="M320.82,1358.969a307.4485,307.4485,0,0,1-117.0784-23.24,315.3249,315.3249,0,0,1-99.7054-65.0211c-61.628-59.404-95.5682-140.31-95.5682-227.8154V316.8466c0-87.5128,33.9382-168.4221,95.5628-227.8236A315.2786,315.2786,0,0,1,203.736,24.0046,307.4591,307.4591,0,0,1,320.8206.77C383.98.77,445.4366,20.7077,498.546,58.4281l511.1258,363.0231a310.53,310.53,0,0,1,99.5226,116.1642,321.7985,321.7985,0,0,1,0,284.508,310.53,310.53,0,0,1-99.5226,116.1642L498.546,1301.3106c-53.1071,37.7187-114.5643,57.6584-177.7119,57.6584ZM319.671,272.1376c-20.7638,0-43.1746,16.81-43.1746,43.9678v727.528c0,27.1578,22.4108,43.9678,43.1746,43.9678a41.9139,41.9139,0,0,0,24.3306-7.9672L856.171,715.87a44.38,44.38,0,0,0,0-72.0012L344.0016,280.1048A41.3529,41.3529,0,0,0,319.671,272.1376Z" fill="url(#d)"/></g><polygon points="8.459 719.342 276.488 927.424 276.488 908.61 8.459 719.342" opacity="0.25"/><path d="M8.6071,387.8583V377.724H1.1086V709.1869h.0058c0,.0279-.0058.0552-.0058.0826a9.4655,9.4655,0,0,0,3.93,7.6982l3.2607,2.25v.0073l900.01,639.8374,233.7988-166.0537Z" fill="url(#e)"/><path d="M8.607,368.4907v19.4008l-3.5682-2.5352a9.4682,9.4682,0,0,1-2.264-13.0442A9.2229,9.2229,0,0,1,8.607,368.4907Z" fill="#222b4d"/><g opacity="0.25"><polygon points="423.319 1014.287 642.559 838.213 693.344 874.246 459.713 1040.185 423.319 1014.287"/></g><g opacity="0.35"><path d="M856.1261,715.8985l.0058-.0039c.1543-.1108.31-.2192.461-.3335l.2744-.207a43.6543,43.6543,0,0,0,17.7256-34.8794c.0185-1.39-.3169-5.4976-.63-8.3189L872.693,660.7l9.4931-6.5391c72.9527-50.2178,114.1792-119.687,119.2237-200.8984l38.47.3232c4.9155,108.624-44.5557,210.6968-132.3359,273.044l-29.0425,20.6318Z"/></g><path d="M320.8282,1358.9679c-117.997,0-227.98-68.7393-280.1968-175.1206-17.73-36.107-27.77-78.5777-29.84-126.229l-1.9272-44.3672,33.7119,28.9082c50.104,42.9643,112.8447,66.6255,176.6636,66.6255A260.0552,260.0552,0,0,0,319.4732,1088.63l2.4517-1.0186,2.6362-.3174a42.02,42.02,0,0,0,19.4409-7.6709l29.1934-20.7329c.28-.1938.56-.3877.84-.5884L856.1925,715.8512l29.04-20.63c77.084-54.75,120.5078-144.8027,116.1592-240.8921l-1.8228-40.2749,32.479,23.8857c36.9942,27.2066,65.6411,62.711,85.1451,105.5269,18.1088,39.7529,27.4794,85.064,27.0991,131.0347-.8765,105.9233-51.2027,204.5332-134.6226,263.7812L498.5479,1301.3092C445.441,1339.0294,383.9864,1358.9679,320.8282,1358.9679Z" fill="url(#f)"/></symbol></defs><title>logo</title><rect y="4.18" width="911" height="911" fill="none"/><rect y="13.18" width="911" height="893" fill="none"/><use width="1145.0399" height="1360.4421" transform="translate(174.8604 10.0058) scale(0.4897 0.4823)" xlink:href="#g"/><path d="M910.9561,826.1563V803.9941c0-23.7158-14.7325-38.4482-38.4488-38.4482S834.06,780.2783,834.06,803.9941v29.3868c0,23.7158,14.7319,38.4492,38.4477,38.4492,24.8931,0,37.918-16.76,37.918-33.3155v-3.2978H890.708v1.7041c0,10.3994-6.8037,16.6074-18.2007,16.6074-12.1943,0-18.3774-7.2549-18.3774-21.5644v-5.8076Zm-57.0035-16.7081v-3.8408c.1641-14.44,6.4068-21.7617,18.5547-21.7617,12.1944,0,18.3775,7.3145,18.3775,21.7412v3.8613Zm-635.292-43.9558c-13.3106,0-23.6333,4.4783-30.182,12.6153-5.4322,6.5654-8.4171,15.4719-8.4171,26.2111v28.9651c0,23.8272,14.7906,38.6287,38.5991,38.6287,25.108,0,38.2447-16.8667,38.2447-33.5276v-3.2871H234.7661l-.0024,1.854c-.0044,3.54-1.1787,15.0881-16.1031,15.0881-4.996,0-8.8789-1.4077-11.5415-4.1836-3.1167-3.25-4.6513-8.45-4.561-15.4838v-6.1841h54.6924v-.1831h.0093V804.3188c0-10.7392-2.9849-19.6457-8.4171-26.2111C242.294,769.9707,231.9713,765.4924,218.6606,765.4924Zm16.28,43.951H202.2036V805.417c.17-13.2962,5.707-20.0374,16.457-20.0374,10.8028,0,16.28,6.74,16.28,20.0325Zm-65.0913,42.2539a9.5706,9.5706,0,0,1-4.1836-2.7625,10.32,10.32,0,0,1-2.1342-4.4148,29.8561,29.8561,0,0,1-.6094-6.552V735.1606H140.7808V842.0942a47.6383,47.6383,0,0,0,1.5185,12.5679,20.4979,20.4979,0,0,0,5.3189,9.3145,24.6988,24.6988,0,0,0,10.1469,5.7382,55.9522,55.9522,0,0,0,14.6827,2.1365l1.5664.05,3.1245-18.6174-1.8218-.2822A29.82,29.82,0,0,1,169.8491,851.6973ZM46.5264,766.031l-1.6714-.1277c-3.6245-.2762-7.479-.4109-11.7827-.4109-11.3206,0-19.4867,2.7034-24.8125,8.4339C2.7816,779.6576.1377,788.3821.1377,800.311v69.78H22.457v-67.594c0-12.6612,3.6162-16.9342,14.3326-16.9342,2.684,0,5.9921.1356,8.1928.2633l1.9048.1095V766.0769l-.3608-.0283Zm44.2724-.5386c-13.3122,0-23.6359,4.48-30.1843,12.6182C55.184,784.6758,52.2,793.5812,52.2,804.3188v28.9651c0,23.8272,14.79,38.6287,38.5986,38.6287,25.1084,0,38.2451-16.8667,38.2451-33.5276v-3.2871h-22.14l-.002,1.854c-.0048,3.54-1.1792,15.0881-16.1035,15.0881-4.9961,0-8.8789-1.4077-11.541-4.1836-3.1167-3.25-4.6514-8.4514-4.5615-15.4838v-6.1841h54.6665v-.1831h.0356V804.3188c0-10.7376-2.9838-19.643-8.4145-26.2082C114.4353,769.9719,104.1113,765.4924,90.7988,765.4924Zm16.28,43.951H74.3418V805.417c.17-13.2962,5.707-20.0374,16.457-20.0374,10.8028,0,16.28,6.74,16.28,20.0325ZM612.7,765.5459c-23.7158,0-38.4482,14.7324-38.4482,38.4482v29.3868c0,23.7158,14.7324,38.4492,38.4482,38.4492,24.8931,0,37.9175-16.76,37.9175-33.3155v-3.2978H630.9014v1.7041c0,10.3994-6.8042,16.6074-18.2012,16.6074-12.1943,0-18.3779-7.2549-18.3779-21.5644v-5.8076h56.8261V803.9941C651.1484,780.2783,636.416,765.5459,612.7,765.5459Zm18.3779,43.9023H594.1455v-3.8408c.1641-14.44,6.4067-21.7617,18.5547-21.7617,12.1943,0,18.3779,7.3145,18.3779,21.7412Zm-74.2729,42.7747c-9.5366,0-13.9785-5.4387-13.9785-17.1169V786.2913h24.9614V767.33h-.3613v-.0037h-24.6V741.8258h-.3609V741.64H524.0547l-.0166.1854h-.312l-2.301,25.5006h-9.7615v.0037h-.3609v18.9612h9.2056v48.9965c0,24.4229,11.08,36.8069,32.9336,36.8069a90.9409,90.9409,0,0,0,14.624-1.42l1.4922-.2683V850.7136l-2.1763.4734A48.0537,48.0537,0,0,1,556.8052,852.2229Zm159.7231-78.5081a36.8818,36.8818,0,0,0-22.8032-8.1689c-21.6787,0-33.1377,12.8672-33.1377,37.209v30.626c0,23.7158,14.5972,38.4492,38.0947,38.4492,23.7427,0,37.9175-14.374,37.9175-38.4492v-98.22H716.5283Zm0,57.5411c0,14.7793-6.0044,22.2724-17.8462,22.2724-11.9594,0-18.0234-7.4931-18.0234-22.2724v-26.377c0-14.6875,4.5547-20.6787,15.7217-20.6787,7.6875,0,15.5581,5.3857,20.1479,10.8779Zm-372.2-63.9258.0012-.0037H320.7842l-.001.0037h-.2759l-19.0219,72.915L282.1133,767.33h-.2744l-.001-.0037H257.939l.0011.0037h-.5026l33.5234,102.7607h20.5235L344.83,767.33Zm134.2618-.7776a48.1336,48.1336,0,0,0-20.0927,0c-17.0835,3.7543-27.3139,17.4443-27.3139,37.5842v65.9541h22.3193V806.3225c0-18.6084,8.584-20.76,15.0411-20.76,9.5586,0,15.0405,7.5662,15.0405,20.76v63.7683h22.3188V804.1367C505.9028,783.9967,495.6728,770.3068,478.59,766.5525Zm306.9079-1.0066c-23.607,0-38.272,14.7324-38.272,38.4482v22.4834c0,24.22,11.1494,36.501,33.1382,36.501a36.412,36.412,0,0,0,22.8032-7.8711v6.4209c0,12.6592-5.5581,18.5547-17.4922,18.5547-15.5708,0-17.67-5.9785-17.67-11.8271v-1.8038H748.2881v3.5743c0,18.2861,13.2778,28.3574,37.3867,28.3574,23.521,0,37.5635-12.9834,37.5635-34.7305V803.9941C823.2383,780.2783,808.7769,765.5459,785.4976,765.5459ZM803.167,834.457c-5.6978,6.1895-13.1846,9.8662-20.148,9.8662-11.3144,0-15.7221-5.5986-15.7221-19.9707V806.1182c0-14.7793,6.1235-22.2725,18.2007-22.2725,11.7246,0,17.6694,7.4932,17.6694,22.2725ZM393.5114,766.4259a54.2247,54.2247,0,0,0-10.3449-.9335,47.9689,47.9689,0,0,0-10.2707,1.0623c-18.3738,3.946-26.7347,18.5378-26.7347,33.0278v5.29h22.1411v-3.2862c0-10.3329,5.2793-16.0238,14.8643-16.0238,10.02,0,14.6865,5.7282,14.6865,18.0275v11.9075a85.8109,85.8109,0,0,0-20.5288-2.8057c-23.2661,0-33.6416,9.0474-33.6416,29.3359,0,20.6675,11.1944,29.8848,36.2969,29.8848,26.2944,0,40.1924-11.9717,40.1924-34.6209V801.4043C420.1719,781.8562,410.7985,769.7261,393.5114,766.4259Zm4.3416,69.9552c0,14.1477-10.0083,17.1172-18.4043,17.1172-5.0879,0-8.4179-1.0081-10.4795-3.1726-1.8393-1.93-2.6948-4.8709-2.6137-9.0264,0-8.9228,3.9467-12.5627,13.624-12.5627a57.4776,57.4776,0,0,1,17.8735,2.8169Z" fill="#111f33"/></svg>